# xmcd
#
# Track frame offsets:
#	150
#	13464
#	23580
#	35014
#	49249
#	60250
#	72679
#	85704
#	95736
#	111584
#	125196
#	137081
#	145683
#	160349
#	172337
#	185335
#	196193
#	208903
#	220150
#	229722
#
# Disc length: 3245 seconds
#
# Revision: 0
# Processed by: cddbd v1.4PL0 Copyright (c) Steve Scherf et al.
# Submitted via: audiograbber 1.81.03
#
DISCID=350cab14
DTITLE=Sidekicks - Picking and Grinning
DYEAR=1900
DGENRE=Bluegrass
TTITLE0=Old Home Place
TTITLE1=Whiskey For Breakfast
TTITLE2=Blue Ridge Cabin Home
TTITLE3=You Are My Sunshine
TTITLE4=Ballad of Jed Clampett
TTITLE5=Dueling Banjos
TTITLE6=Grandma's Feather Bed
TTITLE7=Ain't She Sweet
TTITLE8=You Ain't Goin' Nowhere
TTITLE9=Wabash Cannonball
TTITLE10=Salty Dog
TTITLE11=Foggy Mountain Breakdown
TTITLE12=You're Sixteen
TTITLE13=Hello Mary Lou
TTITLE14=Ballad of the MTA
TTITLE15=Louisiana Saturday Night
TTITLE16=If I Lose
TTITLE17=Rollin' in My Sweet Baby's Arms
TTITLE18=Five Foot Two
TTITLE19=Orange Blossom Special
EXTD=
EXTT0=
EXTT1=
EXTT2=
EXTT3=
EXTT4=
EXTT5=
EXTT6=
EXTT7=
EXTT8=
EXTT9=
EXTT10=
EXTT11=
EXTT12=
EXTT13=
EXTT14=
EXTT15=
EXTT16=
EXTT17=
EXTT18=
EXTT19=
PLAYORDER=
